Burrraahh 2013 Hindi Punjabi DVDRip XviD-UMP


IMDB: None

Language: Hindi

Movie: Punjabi

Rating: Not yet rated

Release Group: UMP


Information:


Format : AVI
Format/Info : Audio Video Interleave
File size : 696 MiB
Duration : 2h 0mn
Overall bit rate : 810 Kbps


Video
ID : 0
Format : MPEG-4 Visual
Format profile : Advanced Simple@L5
Format settings, BVOP : 2
Format settings, QPel : Yes
Format settings, GMC : No warppoints
Format settings, Matrix : Default (H.263)
Codec ID : XVID
Codec ID/Hint : XviD
Duration : 2h 0mn
Bit rate : 720 Kbps
Width : 640 pixels
Height : 304 pixels
Display aspect ratio : 2.105
Frame rate : 25.000 fps
Color space : YUV
Chroma subsampling : 4:2:0
Bit depth : 8 bits
Scan type : Progressive
Compression mode : Lossy
Bits/(Pixel*Frame) : 0.148
Stream size : 619 MiB (89%)
Writing library : XviD 1.2.1 (UTC 2008-12-04)


Audio
ID : 1
Format : MPEG Audio
Format version : Version 1
Format profile : Layer 3
Mode : Joint stereo
Mode extension : MS Stereo
Codec ID : 55
Codec ID/Hint : MP3
Duration : 2h 0mn
Bit rate mode : Constant
Bit rate : 80.0 Kbps
Channel(s) : 2 channels
Sampling rate : 32.0 KHz
Compression mode : Lossy
Stream size : 68.7 MiB (10%)
Alignment : Aligned on interleaves
Interleave, duration : 40 ms (1.00 video frame)
Interleave, preload duration : 504 ms
Writing library : LAME3.99r
Encoding settings : -m j -V 4 -q 2 -lowpass 13.5 -b 80

         
RESPECTS TO

*SaM* N UMP


Poster:

 
http://i.imgur.com/YTYMsOe.jpg


Screenshots:

 
http://i.imgur.com/5s5ZmHn.png

 
http://i.imgur.com/qEypMzT.png

 
http://i.imgur.com/ELi1uFm.png


SEED AND ENJOY!